<?xml version="1.0" standalone="no"?>
<!DOCTYPE svg PUBLIC "-//W3C//DTD SVG 20010904//EN"
 "http://www.w3.org/TR/2001/REC-SVG-20010904/DTD/svg10.dtd">
<svg version="1.0" xmlns="http://www.w3.org/2000/svg"
 width="252.000000pt" height="200.000000pt" viewBox="0 0 252.000000 200.000000"
 preserveAspectRatio="xMidYMid meet">

<g transform="translate(0.000000,200.000000) scale(0.100000,-0.100000)"
fill="#000000" stroke="none">
<path d="M447 1986 c-55 -20 -103 -61 -134 -113 -26 -45 -27 -55 -34 -227 -10
-251 -39 -380 -110 -482 -30 -44 -91 -86 -142 -98 -26 -6 -27 -9 -27 -65 l0
-59 38 -12 c59 -20 100 -49 132 -95 69 -101 99 -231 109 -481 7 -172 8 -182
34 -227 31 -52 79 -93 134 -113 56 -19 1570 -19 1626 0 55 20 103 61 134 113
26 45 27 55 34 227 10 250 40 380 109 481 33 48 85 85 134 94 30 7 31 8 34 69
3 60 2 62 -25 68 -51 12 -112 54 -142 98 -71 102 -100 231 -110 482 -7 172 -8
182 -34 227 -31 52 -79 93 -134 113 -56 19 -1570 19 -1626 0z m1024 -482 c25
-12 62 -36 84 -55 133 -117 87 -346 -82 -404 l-37 -13 35 -7 c57 -12 125 -52
158 -92 93 -112 70 -299 -47 -389 -84 -64 -115 -69 -427 -69 l-280 0 -3 515
c-1 283 0 521 3 528 4 11 60 13 277 10 253 -3 276 -5 319 -24z"/>
<path d="M1050 1240 l0 -162 138 4 c159 4 217 22 252 80 24 40 26 107 4 154
-29 61 -76 76 -246 82 l-148 5 0 -163z"/>
<path d="M1050 775 l0 -178 159 5 c142 4 163 7 207 29 65 32 94 76 94 143 0
70 -25 115 -80 146 -42 23 -56 25 -212 28 l-168 4 0 -177z"/>
</g>
</svg>
